<?xml version="1.0" encoding="UTF-8" ?>
<!DOCTYPE svg PUBLIC "-//W3C//DTD SVG 1.1//EN" "http://www.w3.org/Graphics/SVG/1.1/DTD/svg11.dtd">
<svg width="160pt" height="160pt" viewBox="0 0 160 160" version="1.1" xmlns="http://www.w3.org/2000/svg">
<g id="#ffffffff">
<path fill="#ffffff" opacity="1.00" d=" M 43.49 89.92 C 45.49 90.21 47.51 90.35 49.53 90.51 C 49.71 98.02 49.70 105.52 49.84 113.03 C 56.79 114.13 63.85 114.48 70.86 113.81 C 70.94 106.96 71.12 100.11 71.07 93.25 C 86.33 93.71 101.59 92.38 116.58 89.48 C 118.09 102.21 118.71 115.67 113.82 127.79 C 110.17 137.09 102.38 144.75 92.79 147.75 C 82.65 150.92 71.15 150.29 61.70 145.28 C 53.71 141.00 47.99 133.23 45.28 124.68 C 41.68 113.47 42.33 101.47 43.49 89.92 Z" />
</g>
<g id="#010101ff">
<path fill="#010101" opacity="1.00" d=" M 53.85 10.86 C 65.17 3.15 79.95 1.63 93.03 5.04 C 103.22 7.65 112.07 14.49 117.65 23.36 C 126.07 36.31 128.24 52.20 127.83 67.36 C 122.72 68.97 117.54 70.37 112.25 71.26 C 97.37 73.79 82.19 75.14 67.11 73.75 C 55.20 72.85 43.40 70.76 31.84 67.77 C 31.23 56.25 32.54 44.50 36.69 33.69 C 40.15 24.71 45.79 16.31 53.85 10.86 M 64.38 23.14 C 60.37 25.07 58.89 29.86 58.75 34.00 C 58.66 38.65 60.37 43.97 64.72 46.27 C 67.81 47.76 71.57 46.09 73.27 43.30 C 76.48 38.15 76.31 31.10 72.95 26.06 C 71.19 23.32 67.46 21.62 64.38 23.14 M 90.39 23.13 C 87.57 24.40 85.85 27.26 85.02 30.13 C 83.72 34.71 84.17 40.02 87.08 43.91 C 88.41 45.74 90.60 47.03 92.90 46.84 C 95.95 46.65 98.29 44.20 99.56 41.60 C 101.84 36.77 101.67 30.75 98.86 26.17 C 97.18 23.38 93.49 21.54 90.39 23.13 M 59.26 52.26 C 55.95 52.88 52.94 54.46 50.05 56.12 C 52.24 57.93 54.42 59.87 57.10 60.94 C 65.56 64.50 74.79 66.84 84.02 65.91 C 92.76 65.16 101.11 62.00 108.69 57.69 C 108.72 57.06 108.77 55.80 108.80 55.16 C 104.83 53.55 100.75 52.10 96.48 51.54 C 84.15 49.76 71.49 49.79 59.26 52.26 Z" />
<path fill="#010101" opacity="1.00" d=" M 89.17 33.13 C 91.06 32.25 93.28 32.09 95.30 32.57 C 96.62 33.12 97.42 34.43 98.47 35.36 C 94.15 35.26 89.86 35.67 85.66 36.67 C 86.80 35.46 87.79 34.08 89.17 33.13 Z" />
<path fill="#010101" opacity="1.00" d=" M 25.04 85.03 C 31.28 86.30 37.30 88.43 43.49 89.92 C 42.33 101.47 41.68 113.47 45.28 124.68 C 47.99 133.23 53.71 141.00 61.70 145.28 C 71.15 150.29 82.65 150.92 92.79 147.75 C 102.38 144.75 110.17 137.09 113.82 127.79 C 118.71 115.67 118.09 102.21 116.58 89.48 C 122.71 88.21 128.72 86.46 134.81 85.01 C 138.67 94.46 141.89 104.22 143.68 114.28 C 144.42 119.00 145.15 123.98 143.65 128.64 C 141.86 129.69 140.36 127.94 139.13 126.86 C 135.56 123.14 132.90 118.68 129.83 114.56 C 128.65 120.08 127.47 125.72 124.75 130.73 C 122.13 135.58 118.75 140.08 114.54 143.66 C 102.46 153.98 85.67 157.10 70.25 154.72 C 61.14 153.43 52.46 149.49 45.39 143.61 C 41.22 140.03 37.87 135.56 35.25 130.74 C 32.52 125.72 31.34 120.08 30.17 114.54 C 26.27 119.46 23.47 125.68 17.93 129.00 C 17.54 128.91 16.75 128.73 16.36 128.64 C 15.12 124.91 15.40 120.90 15.89 117.07 C 17.38 106.00 21.15 95.44 25.04 85.03 Z" />
</g>
<g id="#fefefeff">
<path fill="#fefefe" opacity="1.00" d=" M 64.38 23.14 C 67.46 21.62 71.19 23.32 72.95 26.06 C 76.31 31.10 76.48 38.15 73.27 43.30 C 71.57 46.09 67.81 47.76 64.72 46.27 C 60.37 43.97 58.66 38.65 58.75 34.00 C 58.89 29.86 60.37 25.07 64.38 23.14 M 68.43 31.26 C 65.28 33.15 65.61 39.08 69.13 40.25 C 72.33 41.12 74.15 37.17 73.50 34.53 C 73.24 32.28 70.70 29.76 68.43 31.26 Z" />
</g>
<g id="#fdfdfdff">
<path fill="#fdfdfd" opacity="1.00" d=" M 90.39 23.13 C 93.49 21.54 97.18 23.38 98.86 26.17 C 101.67 30.75 101.84 36.77 99.56 41.60 C 98.29 44.20 95.95 46.65 92.90 46.84 C 90.60 47.03 88.41 45.74 87.08 43.91 C 84.17 40.02 83.72 34.71 85.02 30.13 C 85.85 27.26 87.57 24.40 90.39 23.13 M 89.17 33.13 C 87.79 34.08 86.80 35.46 85.66 36.67 C 89.86 35.67 94.15 35.26 98.47 35.36 C 97.42 34.43 96.62 33.12 95.30 32.57 C 93.28 32.09 91.06 32.25 89.17 33.13 Z" />
</g>
<g id="#040404ff">
<path fill="#040404" opacity="1.00" d=" M 68.43 31.26 C 70.70 29.76 73.24 32.28 73.50 34.53 C 74.15 37.17 72.33 41.12 69.13 40.25 C 65.61 39.08 65.28 33.15 68.43 31.26 Z" />
</g>
<g id="#fcad0bff">
<path fill="#fcad0b" opacity="1.00" d=" M 59.26 52.26 C 71.49 49.79 84.15 49.76 96.48 51.54 C 100.75 52.10 104.83 53.55 108.80 55.16 C 108.77 55.80 108.72 57.06 108.69 57.69 C 101.11 62.00 92.76 65.16 84.02 65.91 C 74.79 66.84 65.56 64.50 57.10 60.94 C 54.42 59.87 52.24 57.93 50.05 56.12 C 52.94 54.46 55.95 52.88 59.26 52.26 Z" />
</g>
<g id="#ea1c26ff">
<path fill="#ea1c26" opacity="1.00" d=" M 112.25 71.26 C 117.54 70.37 122.72 68.97 127.83 67.36 C 130.15 73.24 132.46 79.14 134.81 85.01 C 128.72 86.46 122.71 88.21 116.58 89.48 C 101.59 92.38 86.33 93.71 71.07 93.25 C 71.12 100.11 70.94 106.96 70.86 113.81 C 63.85 114.48 56.79 114.13 49.84 113.03 C 49.70 105.52 49.71 98.02 49.53 90.51 C 47.51 90.35 45.49 90.21 43.49 89.92 C 37.30 88.43 31.28 86.30 25.04 85.03 C 26.96 79.14 29.36 73.43 31.84 67.77 C 43.40 70.76 55.20 72.85 67.11 73.75 C 82.19 75.14 97.37 73.79 112.25 71.26 Z" />
</g>
<g id="#fcac0bff">
<path fill="#fcac0b" opacity="1.00" d=" M 33.45 149.46 C 36.87 146.53 41.27 145.22 45.39 143.61 C 52.46 149.49 61.14 153.43 70.25 154.72 C 85.67 157.10 102.46 153.98 114.54 143.66 C 118.59 145.37 122.99 146.69 126.32 149.68 C 127.66 150.75 128.39 152.78 127.37 154.30 C 122.11 156.64 116.17 156.27 110.55 156.54 C 97.69 156.98 84.87 154.92 72.02 155.80 C 58.62 156.61 44.97 157.56 31.73 154.69 C 32.28 152.95 31.83 150.67 33.45 149.46 Z" />
</g>
</svg>
